<?xml version="1.0" encoding="UTF-8"?>
<svg id="Layer_1" xmlns="http://www.w3.org/2000/svg" version="1.1" viewBox="0 0 16 16">
  <!-- Generator: Adobe Illustrator 29.3.1, SVG Export Plug-In . SVG Version: 2.1.0 Build 151)  -->
  <defs>
    <style>
      .st0 {
        fill: #a7a7a7;
      }
    </style>
  </defs>
  <path class="st0" d="M15.9,5.4c0,1.6,0,3.2,0,4.8-.2,2.5-1.2,3.3-3.6,3.4-2.8-.1-5.7.1-8.5,0S.2,12.4,0,9.8s0-2.9,0-4.2,0-1.3.4-1.9c.6-1.1,2.1-1.2,3.2-1.3,2.9,0,5.9-.1,8.7,0s2.3.2,2.9.9.6,1.4.6,2.1ZM10.4,8.3c.2-.2.2-.7-.1-.8l-3.4-1.8c-.4-.1-.7,0-.7.5,0,1.1,0,2.3,0,3.5,0,.4.4.6.8.4,1-.6,2.1-1,3.1-1.6s.3-.2.4-.2Z"/>
</svg>