<svg width="16" height="16" viewBox="0 0 16 16" fill="none" xmlns="http://www.w3.org/2000/svg">
<path fill-rule="evenodd" clip-rule="evenodd" d="M7.06007 0H8.93911C10.2793 0.00303317 10.587 0.0148365 11.2982 0.0472824C12.1497 0.0861222 12.7313 0.221379 13.2402 0.419167C13.7663 0.623592 14.2124 0.897153 14.6572 1.34192C15.102 1.78672 15.3756 2.23289 15.58 2.75899C15.7778 3.26787 15.913 3.84946 15.9519 4.70101C15.9895 5.5259 15.9994 5.80798 16 7.78856V8.21064C15.9994 10.1912 15.9895 10.4733 15.9519 11.2982C15.913 12.1497 15.7778 12.7313 15.58 13.2402C15.3756 13.7663 15.102 14.2124 14.6572 14.6572C14.2124 15.102 13.7663 15.3756 13.2402 15.58C12.7313 15.7778 12.1497 15.913 11.2982 15.9519C10.4733 15.9895 10.1912 15.9994 8.21064 16H7.78856C5.80798 15.9994 5.5259 15.9895 4.70101 15.9519C3.84946 15.913 3.26787 15.7778 2.75899 15.58C2.23289 15.3756 1.78672 15.102 1.34192 14.6572C0.897153 14.2124 0.623592 13.7663 0.419167 13.2402C0.221379 12.7313 0.0861222 12.1497 0.0472824 11.2982C0.0148365 10.587 0.00303317 10.2793 0 8.93911V7.06007C0.00303317 5.71984 0.0148365 5.41212 0.0472824 4.70101C0.0861222 3.84946 0.221379 3.26787 0.419167 2.75899C0.623592 2.23289 0.897153 1.78672 1.34192 1.34192C1.78672 0.897153 2.23289 0.623592 2.75899 0.419167C3.26787 0.221379 3.84946 0.0861222 4.70101 0.0472824C5.41212 0.0148365 5.71984 0.00303317 7.06007 0H8.93911H7.06007ZM7.99963 3.99939C10.2089 3.99939 11.9998 5.79034 11.9998 7.99963C11.9998 10.2089 10.2089 11.9998 7.99963 11.9998C5.79034 11.9998 3.99939 10.2089 3.99939 7.99963C3.99939 5.79034 5.79034 3.99939 7.99963 3.99939ZM7.99961 5.40295C6.5655 5.40295 5.40295 6.5655 5.40295 7.99961C5.40295 9.43368 6.5655 10.5962 7.99961 10.5962C9.43368 10.5962 10.5962 9.43368 10.5962 7.99961C10.5962 6.5655 9.43368 5.40295 7.99961 5.40295ZM12.3332 2.66595C12.8855 2.66595 13.3332 3.11371 13.3332 3.66603C13.3332 4.21835 12.8855 4.66607 12.3332 4.66607C11.7809 4.66607 11.3331 4.21835 11.3331 3.66603C11.3331 3.11371 11.7809 2.66595 12.3332 2.66595Z" fill="#A7A7A7"/>
</svg>
