<svg width="16" height="16" viewBox="0 0 16 16" fill="none" xmlns="http://www.w3.org/2000/svg">
<path fill-rule="evenodd" clip-rule="evenodd" d="M1.3 0C0.58203 0 0 0.58203 0 1.3V14.7C0 15.418 0.58203 16 1.3 16H14.7C15.418 16 16 15.418 16 14.7V1.3C16 0.58203 15.418 0 14.7 0H1.3ZM13.6089 2L9.14163 7.07857L14 13.9938H10.4267L7.15491 9.3371L3.05866 13.9938H2L6.68492 8.66818L2 2H5.57328L8.67137 6.40965L12.5503 2H13.6089ZM7.21697 8.06292L7.69165 8.72692L10.9248 13.2499H12.5508L8.5888 7.70737L8.11412 7.04337L5.06615 2.77941H3.44011L7.21697 8.06292Z" fill="#C4C4C4"/>
</svg>
