<svg width="16" height="16" viewBox="0 0 16 16" fill="none" xmlns="http://www.w3.org/2000/svg">
<path d="M0.882667 0.000976562C0.395333 0.000976562 0 0.396286 0 0.883592V15.1174C0 15.6053 0.395333 16 0.882667 16H8.66667V10.0004H6.66667V8.00046H8.66667V6.66726C8.66667 4.60137 10.1567 3.33411 12 3.33411C12.8833 3.33411 13.4453 3.30477 13.6667 3.33411L13.3333 5.33399H12C11 5.33399 10.6667 5.96728 10.6667 6.66726V8.00046H13.5153L13 10.0004H10.6667V16H15.1167C15.6053 16 16 15.6053 16 15.1174V0.883592C16 0.396286 15.6053 0.000976562 15.1173 0.000976562H0.882667Z" fill="#A7A7A7"/>
</svg>
